<svg width="70" height="71" xmlns="http://www.w3.org/2000/svg" xmlns:xlink="http://www.w3.org/1999/xlink" xml:space="preserve" overflow="hidden"><g transform="translate(-1183 -34)"><path d="M46.6667 21.875C46.6667 28.3183 41.4433 33.5417 35 33.5417 28.5567 33.5417 23.3333 28.3183 23.3333 21.875 23.3333 15.4317 28.5567 10.2083 35 10.2083 41.4433 10.2083 46.6667 15.4317 46.6667 21.875Z" fill="#F0F0F0" transform="matrix(1 0 0 1.01429 1183 34)"/><path d="M58.3333 59.7917 58.3333 48.125C58.3333 46.375 57.4583 44.625 56 43.4583 52.7917 40.8333 48.7083 39.0833 44.625 37.9167 41.7083 37.0417 38.5 36.4583 35 36.4583 31.7917 36.4583 28.5833 37.0417 25.375 37.9167 21.2917 39.0833 17.2083 41.125 14 43.4583 12.5417 44.625 11.6667 46.375 11.6667 48.125L11.6667 59.7917 58.3333 59.7917Z" fill="#F0F0F0" transform="matrix(1 0 0 1.01429 1183 34)"/></g></svg>