<svg width="56" height="56" xmlns="http://www.w3.org/2000/svg" xmlns:xlink="http://www.w3.org/1999/xlink" xml:space="preserve" overflow="hidden"><g transform="translate(-1347 -13)"><path d="M1396.88 57.1 1389.58 49.8083C1388.59 48.8167 1387.25 48.4667 1385.97 48.7L1383.4 46.1333C1385.68 43.2167 1387.02 39.4833 1387.02 35.5167 1387.02 25.8917 1379.14 18.0167 1369.52 18.0167 1359.89 18.0167 1352.02 25.8917 1352.02 35.5167 1352.02 45.1417 1359.89 53.0167 1369.52 53.0167 1373.48 53.0167 1377.16 51.675 1380.13 49.4L1382.7 51.9667C1382.47 53.25 1382.82 54.5917 1383.81 55.5833L1391.1 62.875C1391.92 63.6917 1392.97 64.1 1394.02 64.1 1395.07 64.1 1396.12 63.6917 1396.93 62.875 1398.45 61.2417 1398.45 58.675 1396.88 57.1ZM1369.46 49.4583C1361.76 49.4583 1355.46 43.1583 1355.46 35.4583 1355.46 27.7583 1361.76 21.4583 1369.46 21.4583 1377.16 21.4583 1383.46 27.7583 1383.46 35.4583 1383.46 43.1583 1377.16 49.4583 1369.46 49.4583Z"/></g></svg>